<?xml version="1.0" standalone="no"?>
<!DOCTYPE svg PUBLIC "-//W3C//DTD SVG 20010904//EN"
 "http://www.w3.org/TR/2001/REC-SVG-20010904/DTD/svg10.dtd">
<svg version="1.0" xmlns="http://www.w3.org/2000/svg"
 width="1531.000000pt" height="1531.000000pt" viewBox="0 0 1531.000000 1531.000000"
 preserveAspectRatio="xMidYMid meet">
<metadata>
Created by potrace 1.11, written by Peter Selinger 2001-2013
</metadata>
<g transform="translate(0.000000,1531.000000) scale(0.100000,-0.100000)"
fill="#000000" stroke="none">
<path d="M8966 15294 c-95 -23 -183 -72 -252 -141 -35 -34 -64 -66 -64 -70 0
-4 -4 -14 -8 -21 -7 -10 -24 -7 -78 14 -285 107 -645 -65 -817 -391 -37 -70
-66 -140 -74 -175 -7 -36 -16 -38 -36 -7 -42 63 -148 153 -217 184 -94 43
-191 41 -284 -7 -128 -65 -227 -187 -348 -431 -74 -150 -80 -159 -107 -159
-15 0 -48 -3 -72 -6 -49 -6 -31 -19 -239 179 -105 100 -215 189 -280 225 -145
80 -439 121 -740 102 -96 -6 -197 -45 -320 -125 -93 -60 -219 -135 -226 -135
-4 0 5 15 18 33 55 73 74 156 50 217 -23 59 -106 150 -190 209 -94 65 -285
135 -427 155 -22 4 -51 8 -65 11 -133 24 -290 30 -775 30 -426 0 -490 -2 -564
-18 -171 -37 -279 -117 -316 -233 -14 -46 -16 -75 -11 -162 4 -58 8 -108 11
-111 16 -27 21 -199 6 -214 -9 -8 -50 -11 -139 -8 -295 10 -314 8 -472 -38
-445 -131 -653 -251 -741 -427 -38 -77 -47 -153 -25 -218 35 -102 113 -185
327 -344 147 -109 219 -175 219 -202 0 -22 -49 -29 -213 -31 -142 -2 -245 -20
-302 -54 -125 -73 -209 -243 -242 -490 -12 -92 -6 -267 12 -335 57 -220 228
-398 385 -399 64 -1 148 42 250 127 47 40 93 72 102 72 11 0 19 -13 26 -46 12
-56 7 -133 -19 -289 -11 -66 -23 -138 -26 -160 -9 -57 -8 -265 2 -440 11 -191
12 -549 2 -640 -14 -129 -34 -186 -154 -435 -44 -91 -87 -181 -96 -200 -22
-48 -78 -218 -84 -255 -3 -16 -8 -48 -12 -71 -14 -72 -5 -215 18 -302 21 -83
72 -197 111 -252 26 -37 25 -42 -8 -62 -44 -27 -118 -108 -157 -173 -58 -97
-80 -181 -79 -310 1 -129 24 -226 82 -347 21 -42 35 -75 32 -73 -4 3 -34 8
-110 19 -24 4 -68 10 -155 22 -22 3 -110 7 -195 8 -232 5 -384 -19 -503 -79
-105 -54 -154 -115 -187 -238 -28 -102 -30 -116 -38 -222 -22 -285 77 -500
275 -598 64 -32 260 -87 368 -103 116 -17 220 3 310 60 l51 33 3 -38 c3 -62
38 -186 68 -240 55 -102 164 -176 316 -213 53 -13 175 -24 299 -26 4 0 5 -10
3 -22 -2 -13 -6 -66 -10 -118 -3 -52 -8 -115 -10 -140 -2 -25 -7 -76 -10 -115
-3 -38 -10 -104 -15 -145 -5 -41 -12 -100 -15 -130 -28 -269 -96 -650 -170
-955 -83 -343 -197 -697 -325 -1000 -68 -163 -65 -154 -85 -270 -31 -180 -76
-350 -177 -670 -129 -408 -218 -718 -234 -815 -2 -14 -8 -45 -14 -70 -5 -25
-12 -65 -16 -90 -3 -25 -8 -53 -10 -63 -18 -101 -25 -435 -10 -547 20 -154 62
-297 98 -340 29 -34 82 -62 190 -99 159 -56 435 -135 578 -166 155 -34 373
-77 510 -100 53 -9 359 -53 412 -59 26 -3 62 -8 80 -11 53 -7 188 -24 248 -30
30 -3 69 -8 85 -10 17 -2 57 -7 90 -10 33 -3 101 -10 150 -15 50 -6 115 -13
145 -15 30 -3 73 -7 95 -10 22 -2 67 -7 100 -10 33 -3 78 -8 100 -10 22 -2 67
-7 100 -10 33 -3 71 -8 85 -10 14 -2 57 -7 95 -10 39 -4 81 -8 95 -11 14 -2
54 -6 90 -9 36 -4 72 -8 80 -10 8 -2 44 -7 80 -10 36 -4 79 -9 95 -12 31 -5
34 -5 168 -23 45 -6 93 -13 107 -16 29 -5 189 -14 495 -29 61 -3 157 -8 215
-11 58 -3 137 -7 175 -9 39 -2 140 -7 225 -11 317 -18 2001 -10 2345 11 28 1
111 6 185 9 74 4 164 9 200 11 155 10 267 17 300 20 19 2 78 7 130 10 52 4
115 8 140 10 25 2 86 7 135 11 50 3 99 8 110 10 11 2 54 6 95 9 41 3 91 8 110
10 40 5 106 12 200 20 65 6 105 10 179 20 21 3 61 8 87 10 41 5 196 24 319 40
17 2 53 7 80 10 28 3 91 12 140 20 85 13 132 20 215 31 19 3 46 7 60 9 27 5
45 8 165 25 92 14 84 12 195 39 47 11 97 22 110 25 14 2 57 12 95 21 39 9 81
19 95 21 14 3 68 13 120 24 52 11 111 22 130 25 19 3 42 8 50 10 8 2 31 7 50
10 242 41 708 141 770 164 120 46 226 147 287 274 26 53 56 150 53 167 -1 3 3
18 9 33 26 68 32 338 11 472 -24 148 -107 449 -155 560 -30 70 -216 547 -244
628 -72 205 -100 354 -96 502 3 124 23 201 78 300 43 76 115 128 322 230 204
100 254 119 815 310 500 169 674 246 905 400 303 201 535 523 550 763 2 42 7
118 10 167 3 50 7 128 10 175 15 235 19 317 30 600 2 58 7 186 12 285 10 239
10 1343 -1 1570 -12 284 -24 497 -31 575 -2 25 -7 83 -10 130 -3 47 -8 101
-10 120 -7 60 -17 174 -20 205 -3 40 -16 164 -20 195 -4 26 -13 101 -20 160
-8 71 -17 146 -21 165 -2 11 -7 40 -9 65 -3 25 -8 52 -10 60 -2 8 -7 38 -10
65 -3 28 -8 62 -10 78 -3 15 -7 39 -10 55 -4 28 -39 229 -50 292 -3 19 -12 64
-20 100 -14 63 -18 82 -30 145 -3 17 -8 41 -11 55 -3 14 -8 35 -10 47 -2 12
-16 71 -30 130 -30 127 -27 113 -43 188 -12 54 -103 262 -120 275 -4 3 -23 28
-41 55 -39 57 -186 208 -245 251 -22 16 -42 31 -45 34 -46 47 -347 202 -513
264 -82 30 -205 71 -352 115 -207 63 -578 72 -850 21 -27 -5 -68 -12 -90 -15
-22 -3 -89 -15 -150 -26 -60 -11 -126 -22 -145 -25 -19 -3 -42 -7 -50 -9 -8
-2 -37 -7 -65 -10 -27 -4 -61 -8 -75 -11 -83 -15 -316 -25 -365 -16 -18 3 -21
12 -23 95 -2 89 -19 244 -28 258 -6 11 62 64 125 98 31 16 108 41 171 56 63
15 141 41 172 58 308 160 327 627 33 767 -28 13 -52 25 -54 26 -2 2 9 24 24
50 142 242 188 464 140 679 -28 129 -88 231 -201 347 -90 92 -191 174 -289
235 -70 44 -216 106 -299 128 -104 28 -249 37 -356 21 -45 -6 -170 -41 -226
-63 -7 -3 -23 18 -39 49 -44 87 -130 185 -234 266 -30 23 -58 42 -62 42 -4 0
-14 6 -21 13 -46 45 -259 125 -378 143 -52 7 -173 7 -210 -1 -14 -2 -49 -10
-78 -16 -30 -6 -69 -17 -88 -25 -19 -8 -34 -11 -34 -6 0 16 -85 109 -129 140
-76 55 -191 102 -294 121 -76 14 -246 11 -311 -5z m3459 -5424 c154 -37 184
-61 219 -174 31 -101 84 -293 101 -366 7 -30 23 -98 35 -150 39 -168 97 -445
105 -505 1 -11 8 -48 14 -82 6 -35 13 -75 16 -90 9 -49 24 -147 30 -193 3 -25
8 -56 11 -70 5 -27 5 -31 29 -220 8 -69 17 -134 19 -145 2 -11 7 -60 10 -110
4 -49 9 -97 11 -105 2 -8 7 -58 10 -110 3 -52 8 -111 10 -130 7 -72 18 -350
18 -495 0 -413 -48 -726 -123 -802 -136 -140 -311 -260 -435 -301 -99 -33
-163 -41 -310 -39 -140 2 -140 2 -227 42 -82 36 -88 41 -89 70 -1 16 -3 39 -4
50 -1 11 -5 52 -9 91 -4 39 -8 80 -10 90 -2 11 -7 44 -10 74 -4 30 -8 66 -10
80 -2 14 -7 46 -10 71 -4 25 -9 57 -11 70 -2 13 -6 42 -10 64 -3 22 -10 69
-16 105 -6 36 -13 81 -15 100 -2 19 -11 76 -19 125 -37 228 -55 344 -61 390
-3 28 -8 52 -9 55 -2 3 -6 26 -9 50 -4 25 -9 56 -11 70 -2 14 -7 45 -11 70 -3
25 -7 54 -9 65 -3 26 -34 258 -40 308 -12 95 -15 116 -20 167 -10 94 -22 240
-30 381 -5 84 -6 493 -1 554 2 22 7 81 11 130 7 93 7 98 25 205 17 108 27 165
35 205 9 40 58 220 72 265 18 54 19 55 83 78 70 26 164 51 220 59 19 3 53 8
75 13 58 10 292 4 350 -10z"/>
</g>
</svg>
